<?xml version="1.0" encoding="utf-8"?>
<!-- Generator: Adobe Illustrator 16.0.0, SVG Export Plug-In . SVG Version: 6.00 Build 0)  -->
<!DOCTYPE svg PUBLIC "-//W3C//DTD SVG 1.1//EN" "http://www.w3.org/Graphics/SVG/1.1/DTD/svg11.dtd">
<svg version="1.1" id="Layer_1" xmlns="http://www.w3.org/2000/svg" xmlns:xlink="http://www.w3.org/1999/xlink" x="0px" y="0px"
	 width="50px" height="50px" viewBox="0 0 50 50" enable-background="new 0 0 50 50" xml:space="preserve">
<path fill="#1DACFC" d="M31.561,24.874l16.629-16.63c0.64-0.638,0.64-1.671,0-2.309L43.814,1.56c-0.638-0.637-1.672-0.637-2.309,0
	L24.875,18.19L8.245,1.56c-0.638-0.637-1.672-0.637-2.31,0L1.56,5.935c-0.638,0.638-0.638,1.671,0,2.309l16.63,16.63L1.56,41.506
	c-0.638,0.639-0.638,1.672,0,2.309l4.375,4.375c0.638,0.64,1.672,0.64,2.31,0l16.63-16.629l16.632,16.629
	c0.638,0.64,1.67,0.64,2.308,0l4.375-4.375c0.638-0.637,0.638-1.67,0-2.309L31.561,24.874z"/>
</svg>
