<?xml version="1.0" encoding="utf-8"?>
<!-- Generator: Adobe Illustrator 16.0.0, SVG Export Plug-In . SVG Version: 6.00 Build 0)  -->
<!DOCTYPE svg PUBLIC "-//W3C//DTD SVG 1.1//EN" "http://www.w3.org/Graphics/SVG/1.1/DTD/svg11.dtd">
<svg version="1.1" id="Layer_1" xmlns="http://www.w3.org/2000/svg" xmlns:xlink="http://www.w3.org/1999/xlink" x="0px" y="0px"
	 width="50px" height="50px" viewBox="0 0 50 50" enable-background="new 0 0 50 50" xml:space="preserve">
<g>
	<defs>
		<path id="SVGID_1_" d="M44.945,8.673c0,1.012-0.794,1.804-1.805,1.804c-1.008,0-1.803-0.792-1.803-1.804
			c0-1.01,0.795-1.804,1.803-1.804C44.151,6.94,44.945,7.736,44.945,8.673z M47.181,27.211c0,0.503-0.433,0.937-0.938,0.937h-6.131
			c-0.504,0-0.938-0.434-0.938-0.937L39.173,5.858c0-0.504,0.434-0.938,0.938-0.938h6.131c0.505,0,0.938,0.435,0.938,0.938V27.211z
			 M26.19,38.606v7.647c-1.081,0.144-2.887,0.288-4.182-0.723c-1.229-0.865-1.807-2.524-1.807-4.978V30.457h-5.696h-5.77H7.149
			c-2.451,0-4.4-2.021-4.4-4.399v-0.146L5.564,8.24V8.169C5.922,5.14,7.871,3.624,11.26,3.624h0.796h2.45h10.459h0.649h6.635
			c2.452,0,4.399,2.019,4.399,4.401v18.897l-0.577,0.145C35.713,27.211,26.19,29.95,26.19,38.606z M46.242,2.539h-6.131
			c-1.009,0-1.947,0.435-2.524,1.156c-1.227-1.514-3.102-2.45-5.265-2.45h-6.636h-0.649H14.576h-2.45h-0.795
			c-4.615,0-7.572,2.45-8.15,6.635L0.368,25.624v0.434c0,3.748,3.027,6.85,6.852,6.85h1.591h5.766h3.32v7.646
			c0,3.246,0.939,5.555,2.812,6.925c2.957,2.165,6.998,0.937,7.141,0.866l0.867-0.289l-0.001-9.449c0-6.779,7.862-9.089,8.149-9.159
			l0.65-0.146c0.576,0.793,1.588,1.3,2.668,1.3h6.131c1.876,0,3.318-1.517,3.318-3.319V5.931
			C49.561,3.983,48.046,2.539,46.242,2.539z"/>
	</defs>
	<clipPath id="SVGID_2_">
		<use xlink:href="#SVGID_1_"  overflow="visible"/>
	</clipPath>
	<g clip-path="url(#SVGID_2_)" enable-background="new    ">
		<g>
			<defs>
				<rect id="SVGID_3_" x="-1.645" y="1.131" width="52.547" height="49.266"/>
			</defs>
			<clipPath id="SVGID_4_">
				<use xlink:href="#SVGID_3_"  overflow="visible"/>
			</clipPath>
			<g clip-path="url(#SVGID_4_)">
				<defs>
					<rect id="SVGID_5_" x="-16.053" y="-15.175" width="82.107" height="80.352"/>
				</defs>
				<clipPath id="SVGID_6_">
					<use xlink:href="#SVGID_5_"  overflow="visible"/>
				</clipPath>
				<g clip-path="url(#SVGID_6_)">
					<defs>
						<rect id="SVGID_7_" x="-1.645" y="1.131" width="52.547" height="49.266"/>
					</defs>
					<clipPath id="SVGID_8_">
						<use xlink:href="#SVGID_7_"  overflow="visible"/>
					</clipPath>
					<rect x="-32.474" y="-31.598" clip-path="url(#SVGID_8_)" width="114.948" height="113.195"/>
				</g>
			</g>
		</g>
	</g>
</g>
</svg>
