<?xml version="1.0" encoding="utf-8"?>
<!-- Generator: Adobe Illustrator 16.0.0, SVG Export Plug-In . SVG Version: 6.00 Build 0)  -->
<!DOCTYPE svg PUBLIC "-//W3C//DTD SVG 1.1//EN" "http://www.w3.org/Graphics/SVG/1.1/DTD/svg11.dtd">
<svg version="1.1" id="Layer_1" xmlns="http://www.w3.org/2000/svg" xmlns:xlink="http://www.w3.org/1999/xlink" x="0px" y="0px"
	 width="50px" height="50px" viewBox="0 0 50 50" enable-background="new 0 0 50 50" xml:space="preserve">
<g>
	<path fill="none" stroke="#9B9B9B" stroke-width="1.6874" stroke-miterlimit="10" d="M29.614,24.791c0,2.489-2.018,4.5-4.5,4.5
		c-2.486,0-4.499-2.012-4.499-4.5c0-2.485,2.013-4.5,4.499-4.5C27.597,20.291,29.614,22.306,29.614,24.791z"/>
	
		<path fill="none" stroke="#9B9B9B" stroke-width="1.6874" stroke-linecap="round" stroke-linejoin="round" stroke-miterlimit="10" d="
		M18.364,18.041l3.913-2.999h5.674l3.912,2.999h5.25c1.239,0,2.248,1.015,2.248,2.25v10.503c0,1.234-1.009,2.249-2.248,2.249H13.116
		c-1.24,0-2.25-1.015-2.25-2.249V20.291c0-1.234,1.009-2.25,2.25-2.25H18.364z"/>
	<g>
		<defs>
			<path id="SVGID_1_" d="M35.515,20.259c-0.413,0-0.748,0.336-0.748,0.75c0,0.412,0.335,0.75,0.748,0.75
				c0.416,0,0.749-0.338,0.749-0.75C36.264,20.595,35.931,20.259,35.515,20.259z"/>
		</defs>
		<clipPath id="SVGID_2_">
			<use xlink:href="#SVGID_1_"  overflow="visible"/>
		</clipPath>
		<g clip-path="url(#SVGID_2_)" enable-background="new    ">
			<g>
				<defs>
					<rect id="SVGID_3_" x="34.395" y="19.208" width="3.375" height="3.375"/>
				</defs>
				<clipPath id="SVGID_4_">
					<use xlink:href="#SVGID_3_"  overflow="visible"/>
				</clipPath>
				<g clip-path="url(#SVGID_4_)">
					<defs>
						<rect id="SVGID_5_" x="26.33" y="11.822" width="18.371" height="18.374"/>
					</defs>
					<clipPath id="SVGID_6_">
						<use xlink:href="#SVGID_5_"  overflow="visible"/>
					</clipPath>
					<g clip-path="url(#SVGID_6_)">
						<defs>
							<rect id="SVGID_7_" x="34.395" y="19.208" width="3.375" height="3.375"/>
						</defs>
						<clipPath id="SVGID_8_">
							<use xlink:href="#SVGID_7_"  overflow="visible"/>
						</clipPath>
						<rect x="17.893" y="3.385" clip-path="url(#SVGID_8_)" fill="#9B9B9B" width="35.246" height="35.248"/>
					</g>
				</g>
			</g>
		</g>
	</g>
	<path fill="none" stroke="#9B9B9B" stroke-width="1.6874" stroke-miterlimit="10" d="M48.511,24.999
		c0,12.985-10.528,23.511-23.51,23.511C12.014,48.51,1.49,37.983,1.49,24.999C1.49,12.017,12.014,1.49,25.001,1.49
		C37.982,1.49,48.511,12.017,48.511,24.999z"/>
</g>
</svg>
