<?xml version="1.0" encoding="utf-8"?>
<!-- Generator: Adobe Illustrator 16.0.0, SVG Export Plug-In . SVG Version: 6.00 Build 0)  -->
<!DOCTYPE svg PUBLIC "-//W3C//DTD SVG 1.1//EN" "http://www.w3.org/Graphics/SVG/1.1/DTD/svg11.dtd">
<svg version="1.1" id="Layer_1" xmlns="http://www.w3.org/2000/svg" xmlns:xlink="http://www.w3.org/1999/xlink" x="0px" y="0px"
	 width="50px" height="50px" viewBox="0 0 50 50" enable-background="new 0 0 50 50" xml:space="preserve">
<g>
	<defs>
		<path id="SVGID_1_" d="M5.056,41.327c0-1.012,0.794-1.804,1.805-1.804c1.008,0,1.802,0.792,1.802,1.804
			c0,1.01-0.794,1.804-1.802,1.804C5.85,43.06,5.056,42.264,5.056,41.327z M2.82,22.789c0-0.503,0.433-0.937,0.938-0.937h6.131
			c0.505,0,0.938,0.434,0.938,0.937v21.353c0,0.504-0.434,0.938-0.938,0.938H3.758c-0.505,0-0.938-0.435-0.938-0.938V22.789z
			 M23.811,11.394V3.747c1.081-0.144,2.887-0.289,4.182,0.723c1.229,0.865,1.807,2.524,1.807,4.978v10.097h5.696h5.77h1.587
			c2.451,0,4.4,2.02,4.4,4.399v0.146L44.437,41.76v0.071c-0.357,3.029-2.307,4.545-5.695,4.545h-0.796h-2.45H25.036h-0.649H17.75
			c-2.452,0-4.399-2.019-4.399-4.401V23.078l0.577-0.145C14.289,22.789,23.811,20.05,23.811,11.394z M3.758,47.461h6.131
			c1.009,0,1.947-0.435,2.525-1.156c1.227,1.514,3.101,2.45,5.264,2.45h6.636h0.649h10.461h2.45h0.795
			c4.615,0,7.572-2.45,8.15-6.635l2.812-17.744v-0.434c0-3.748-3.027-6.85-6.852-6.85H41.19h-5.766h-3.32V9.447
			c0-3.246-0.939-5.555-2.812-6.925c-2.957-2.165-6.998-0.936-7.141-0.866l-0.866,0.289v9.449c0,6.78-7.861,9.089-8.149,9.16
			l-0.65,0.145c-0.577-0.793-1.587-1.3-2.668-1.3h-6.13c-1.876,0-3.318,1.517-3.318,3.319v21.352
			C0.44,46.017,1.955,47.461,3.758,47.461z"/>
	</defs>
	<clipPath id="SVGID_2_">
		<use xlink:href="#SVGID_1_"  overflow="visible"/>
	</clipPath>
	<g clip-path="url(#SVGID_2_)" enable-background="new    ">
		<g>
			<defs>
				<rect id="SVGID_3_" x="-0.902" y="-0.396" width="52.547" height="49.266"/>
			</defs>
			<clipPath id="SVGID_4_">
				<use xlink:href="#SVGID_3_"  overflow="visible"/>
			</clipPath>
			<g clip-path="url(#SVGID_4_)">
				<defs>
					<rect id="SVGID_5_" x="-16.054" y="-15.176" width="82.107" height="80.351"/>
				</defs>
				<clipPath id="SVGID_6_">
					<use xlink:href="#SVGID_5_"  overflow="visible"/>
				</clipPath>
				<g clip-path="url(#SVGID_6_)">
					<defs>
						<rect id="SVGID_7_" x="-0.902" y="-0.396" width="52.547" height="49.266"/>
					</defs>
					<clipPath id="SVGID_8_">
						<use xlink:href="#SVGID_7_"  overflow="visible"/>
					</clipPath>
					<rect x="-32.474" y="-31.598" clip-path="url(#SVGID_8_)" width="114.949" height="113.195"/>
				</g>
			</g>
		</g>
	</g>
</g>
</svg>
