<?xml version="1.0" encoding="utf-8"?>
<!-- Generator: Adobe Illustrator 16.0.0, SVG Export Plug-In . SVG Version: 6.00 Build 0)  -->
<!DOCTYPE svg PUBLIC "-//W3C//DTD SVG 1.1//EN" "http://www.w3.org/Graphics/SVG/1.1/DTD/svg11.dtd">
<svg version="1.1" id="Layer_1" xmlns="http://www.w3.org/2000/svg" xmlns:xlink="http://www.w3.org/1999/xlink" x="0px" y="0px"
	 width="50px" height="50px" viewBox="0 0 50 50" enable-background="new 0 0 50 50" xml:space="preserve">
<g>
	
		<circle fill="none" stroke="#9B9B9B" stroke-width="1.7003" stroke-linejoin="round" stroke-miterlimit="10" cx="25" cy="25" r="23.805"/>
	<path fill="none" stroke="#9B9B9B" stroke-width="1.7003" stroke-miterlimit="10" d="M33.516,34.861
		c0,0.562-0.461,1.021-1.021,1.021H14.131c-0.561,0-1.02-0.46-1.02-1.021V23.64c0-0.561,0.459-1.021,1.02-1.021h18.363
		c0.561,0,1.021,0.46,1.021,1.021V34.861z"/>
	
		<line fill="none" stroke="#9B9B9B" stroke-width="1.7003" stroke-linecap="round" stroke-miterlimit="10" x1="17.236" y1="26.7" x2="30.1" y2="26.7"/>
	<path fill="none" stroke="#9B9B9B" stroke-width="1.7003" stroke-linecap="round" stroke-miterlimit="10" d="M22.292,15.479
		c0,2.814-2.283,5.101-5.101,5.101c-2.815,0-5.101-2.287-5.101-5.101c0-2.816,2.286-5.101,5.101-5.101
		C20.009,10.378,22.292,12.663,22.292,15.479z"/>
	
		<circle fill="none" stroke="#9B9B9B" stroke-width="1.7003" stroke-linecap="round" stroke-miterlimit="10" cx="28.414" cy="17.518" r="3.061"/>
	
		<path fill="none" stroke="#9B9B9B" stroke-width="1.7003" stroke-linecap="round" stroke-linejoin="round" stroke-miterlimit="10" d="
		M33.516,31.193l7.219,3.011c0.518,0.212,0.941-0.069,0.941-0.631v-8.248c0-0.561-0.424-0.844-0.941-0.629l-7.219,3.005"/>
</g>
</svg>
